<svg id="emoji" viewBox="0 0 72 72" xmlns="http://www.w3.org/2000/svg">

  <path id="debug_frame_o" fill="#aaaaaa" stroke="#000000" stroke-width="0" d="M 0 0 h 72 v 72 h -72 z" />

  <path id="debug_frame" fill="#ffffff" stroke="#000000" stroke-width="0" d="M 10.9 9.4 h 50.2 v 53.6 h -50.2 z" />


  <g id="color">


    <path id="swan_body_fill" fill="#fedcba"
    d="M 27.1986 41.0877
       C 30.2436 40.1777 35.6819 33.9477 47.010400000000004 38.288799999999995
       C 55.25880000000001 41.4494 59.9936 35.4443 59.9936 35.4443
       S 57.8916 57.793 47.4045 60.3609
       C 40.1422 62.1391 24.6803 62.537 19.3688 60.3609
       C 10.1888 56.5998 11.1442 44.8688 13.9732 39.8209
       C 16.8842 34.6268 24.1152 31.2423 24.241300000000003 20.519000000000002
       C 24.30 18.88 24.00 16.80 22.0304 17.988799999999998
       C 22.0304 17.988799999999998 17.5506 21.283 14.6044 20.113
       C 14.6044 20.113 18.4919 11.853599999999998 21.6387 10.863599999999998
       C 26.1568 9.4415 29.235500000000002 12.674199999999999 29.9309 17.2015
       C 30.8357 23.0917 24.48 31.426000000000002 23.77 43.5077
       C 24.23 42.87 26.00 41.20 27.1986 41.0877
       Z"
    />

    <path id="swan_beak" fill="#f4aa41"
    d="M 17.50 15.00
    C 17.2282 16.994699999999998 19.6962 18.185399999999998 20.10 19.15
    C 18.55 19.87 16.50 20.80 14.6044 20.113
    C 14.6044 20.113 16.50 16.33 17.50 15.00
    Z"/>
  </g>

  <g id="swan_border_line" fill="none" stroke="#000000" stroke-linecap="round" stroke-linejoin="round" stroke-width="0.05">

    <path id="swan_body_line"
    d="M 27.1986 41.0877
       C 30.2436 40.1777 35.6819 33.9477 47.010400000000004 38.288799999999995
       C 55.25880000000001 41.4494 59.9936 35.4443 59.9936 35.4443
       S 57.8916 57.793 47.4045 60.3609
       C 40.1422 62.1391 24.6803 62.537 19.3688 60.3609
       C 10.1888 56.5998 11.1442 44.8688 13.9732 39.8209
       C 16.8842 34.6268 24.1152 31.2423 24.241300000000003 20.519000000000002
    "/>

    <path id="swan_neck_line"
    d="
    M 22.0304 17.988799999999998
    C 22.0304 17.988799999999998 17.5506 21.283 14.6044 20.113
    C 14.6044 20.113 18.4919 11.853599999999998 21.6387 10.863599999999998
    C 26.1568 9.4415 29.235500000000002 12.674199999999999 29.9309 17.2015
    C 30.8357 23.0917 24.48 31.426000000000002 23.77 43.5077
    "/>

    <path id="swan_feather_line"
    d="M 49.6121 44.31
    C 47.479 47.8089 37.7121 49.6158 32.959599999999995 49.734700000000004
    "/>

  </g>

</svg>
