<?xml version="1.0" standalone="no"?>
<svg height="1700.000000" width="1700.000000" version="1.1" xmlns="http://www.w3.org/2000/svg">
<path d=" M 0.000000 0.000000 l 1700.000000 0.000000 0.000000 1700.000000 -1700.000000 0.000000 Z" fill="lightyellow" stroke="lightyellow" stroke-width="0"/><path d=" M 750.000000 850.000000 l 100.000000 0.000000 l 0.000000 100.000000 l -100.000000 0.000000 Z" fill="black" stroke="black" stroke-width="0"/><path d=" M 850.000000 850.000000 l 100.000000 0.000000 l 0.000000 100.000000 l -100.000000 0.000000 Z" fill="black" stroke="black" stroke-width="0"/><path d=" M 750.000000 750.000000 l 100.000000 0.000000 l 0.000000 100.000000 l -100.000000 0.000000 Z" fill="black" stroke="black" stroke-width="0"/><path d=" M 850.000000 750.000000 l 100.000000 0.000000 l 0.000000 100.000000 l -100.000000 0.000000 Z" fill="black" stroke="black" stroke-width="0"/><path d=" M 1350.000000 150.000000 l 100.000000 0.000000 l 0.000000 100.000000 l -100.000000 0.000000 Z" fill="red" stroke="red" stroke-width="0"/><path d=" M 48.500000 48.500000 l 3.000000 0.000000 0.000000 1603.000000 -3.000000 0.000000 Z" fill="dimgrey" stroke="dimgrey" stroke-width="0"/><path d=" M 148.500000 48.500000 l 3.000000 0.000000 0.000000 1603.000000 -3.000000 0.000000 Z" fill="dimgrey" stroke="dimgrey" stroke-width="0"/><path d=" M 248.500000 48.500000 l 3.000000 0.000000 0.000000 1603.000000 -3.000000 0.000000 Z" fill="dimgrey" stroke="dimgrey" stroke-width="0"/><path d=" M 348.500000 48.500000 l 3.000000 0.000000 0.000000 1603.000000 -3.000000 0.000000 Z" fill="dimgrey" stroke="dimgrey" stroke-width="0"/><path d=" M 448.500000 48.500000 l 3.000000 0.000000 0.000000 1603.000000 -3.000000 0.000000 Z" fill="dimgrey" stroke="dimgrey" stroke-width="0"/><path d=" M 548.500000 48.500000 l 3.000000 0.000000 0.000000 1603.000000 -3.000000 0.000000 Z" fill="dimgrey" stroke="dimgrey" stroke-width="0"/><path d=" M 648.500000 48.500000 l 3.000000 0.000000 0.000000 1603.000000 -3.000000 0.000000 Z" fill="dimgrey" stroke="dimgrey" stroke-width="0"/><path d=" M 748.500000 48.500000 l 3.000000 0.000000 0.000000 1603.000000 -3.000000 0.000000 Z" fill="dimgrey" stroke="dimgrey" stroke-width="0"/><path d=" M 848.500000 48.500000 l 3.000000 0.000000 0.000000 1603.000000 -3.000000 0.000000 Z" fill="dimgrey" stroke="dimgrey" stroke-width="0"/><path d=" M 948.500000 48.500000 l 3.000000 0.000000 0.000000 1603.000000 -3.000000 0.000000 Z" fill="dimgrey" stroke="dimgrey" stroke-width="0"/><path d=" M 1048.500000 48.500000 l 3.000000 0.000000 0.000000 1603.000000 -3.000000 0.000000 Z" fill="dimgrey" stroke="dimgrey" stroke-width="0"/><path d=" M 1148.500000 48.500000 l 3.000000 0.000000 0.000000 1603.000000 -3.000000 0.000000 Z" fill="dimgrey" stroke="dimgrey" stroke-width="0"/><path d=" M 1248.500000 48.500000 l 3.000000 0.000000 0.000000 1603.000000 -3.000000 0.000000 Z" fill="dimgrey" stroke="dimgrey" stroke-width="0"/><path d=" M 1348.500000 48.500000 l 3.000000 0.000000 0.000000 1603.000000 -3.000000 0.000000 Z" fill="dimgrey" stroke="dimgrey" stroke-width="0"/><path d=" M 1448.500000 48.500000 l 3.000000 0.000000 0.000000 1603.000000 -3.000000 0.000000 Z" fill="dimgrey" stroke="dimgrey" stroke-width="0"/><path d=" M 1548.500000 48.500000 l 3.000000 0.000000 0.000000 1603.000000 -3.000000 0.000000 Z" fill="dimgrey" stroke="dimgrey" stroke-width="0"/><path d=" M 1648.500000 48.500000 l 3.000000 0.000000 0.000000 1603.000000 -3.000000 0.000000 Z" fill="dimgrey" stroke="dimgrey" stroke-width="0"/><path d=" M 48.500000 48.500000 l 0.000000 3.000000 1603.000000 0.000000 0.000000 -3.000000 Z" fill="dimgrey" stroke="dimgrey" stroke-width="0"/><path d=" M 48.500000 148.500000 l 0.000000 3.000000 1603.000000 0.000000 0.000000 -3.000000 Z" fill="dimgrey" stroke="dimgrey" stroke-width="0"/><path d=" M 48.500000 248.500000 l 0.000000 3.000000 1603.000000 0.000000 0.000000 -3.000000 Z" fill="dimgrey" stroke="dimgrey" stroke-width="0"/><path d=" M 48.500000 348.500000 l 0.000000 3.000000 1603.000000 0.000000 0.000000 -3.000000 Z" fill="dimgrey" stroke="dimgrey" stroke-width="0"/><path d=" M 48.500000 448.500000 l 0.000000 3.000000 1603.000000 0.000000 0.000000 -3.000000 Z" fill="dimgrey" stroke="dimgrey" stroke-width="0"/><path d=" M 48.500000 548.500000 l 0.000000 3.000000 1603.000000 0.000000 0.000000 -3.000000 Z" fill="dimgrey" stroke="dimgrey" stroke-width="0"/><path d=" M 48.500000 648.500000 l 0.000000 3.000000 1603.000000 0.000000 0.000000 -3.000000 Z" fill="dimgrey" stroke="dimgrey" stroke-width="0"/><path d=" M 48.500000 748.500000 l 0.000000 3.000000 1603.000000 0.000000 0.000000 -3.000000 Z" fill="dimgrey" stroke="dimgrey" stroke-width="0"/><path d=" M 48.500000 848.500000 l 0.000000 3.000000 1603.000000 0.000000 0.000000 -3.000000 Z" fill="dimgrey" stroke="dimgrey" stroke-width="0"/><path d=" M 48.500000 948.500000 l 0.000000 3.000000 1603.000000 0.000000 0.000000 -3.000000 Z" fill="dimgrey" stroke="dimgrey" stroke-width="0"/><path d=" M 48.500000 1048.500000 l 0.000000 3.000000 1603.000000 0.000000 0.000000 -3.000000 Z" fill="dimgrey" stroke="dimgrey" stroke-width="0"/><path d=" M 48.500000 1148.500000 l 0.000000 3.000000 1603.000000 0.000000 0.000000 -3.000000 Z" fill="dimgrey" stroke="dimgrey" stroke-width="0"/><path d=" M 48.500000 1248.500000 l 0.000000 3.000000 1603.000000 0.000000 0.000000 -3.000000 Z" fill="dimgrey" stroke="dimgrey" stroke-width="0"/><path d=" M 48.500000 1348.500000 l 0.000000 3.000000 1603.000000 0.000000 0.000000 -3.000000 Z" fill="dimgrey" stroke="dimgrey" stroke-width="0"/><path d=" M 48.500000 1448.500000 l 0.000000 3.000000 1603.000000 0.000000 0.000000 -3.000000 Z" fill="dimgrey" stroke="dimgrey" stroke-width="0"/><path d=" M 48.500000 1548.500000 l 0.000000 3.000000 1603.000000 0.000000 0.000000 -3.000000 Z" fill="dimgrey" stroke="dimgrey" stroke-width="0"/><path d=" M 48.500000 1648.500000 l 0.000000 3.000000 1603.000000 0.000000 0.000000 -3.000000 Z" fill="dimgrey" stroke="dimgrey" stroke-width="0"/><path d=" M 50.000000 1645.000000 c -6.000000 0.000000 -6.000000 10.000000 0.000000 10.000000 l 100.000000 0.000000 c 6.000000 0.000000 6.000000 -10.000000 0.000000 -10.000000 Z" fill="black" stroke="black" stroke-width="0"/><path d=" M 50.000000 1445.000000 c -6.000000 0.000000 -6.000000 10.000000 0.000000 10.000000 l 100.000000 0.000000 c 6.000000 0.000000 6.000000 -10.000000 0.000000 -10.000000 Z" fill="black" stroke="black" stroke-width="0"/><path d=" M 50.000000 645.000000 c -6.000000 0.000000 -6.000000 10.000000 0.000000 10.000000 l 100.000000 0.000000 c 6.000000 0.000000 6.000000 -10.000000 0.000000 -10.000000 Z" fill="black" stroke="black" stroke-width="0"/><path d=" M 50.000000 45.000000 c -6.000000 0.000000 -6.000000 10.000000 0.000000 10.000000 l 100.000000 0.000000 c 6.000000 0.000000 6.000000 -10.000000 0.000000 -10.000000 Z" fill="black" stroke="black" stroke-width="0"/><path d=" M 150.000000 1645.000000 c -6.000000 0.000000 -6.000000 10.000000 0.000000 10.000000 l 100.000000 0.000000 c 6.000000 0.000000 6.000000 -10.000000 0.000000 -10.000000 Z" fill="black" stroke="black" stroke-width="0"/><path d=" M 150.000000 1245.000000 c -6.000000 0.000000 -6.000000 10.000000 0.000000 10.000000 l 100.000000 0.000000 c 6.000000 0.000000 6.000000 -10.000000 0.000000 -10.000000 Z" fill="black" stroke="black" stroke-width="0"/><path d=" M 150.000000 245.000000 c -6.000000 0.000000 -6.000000 10.000000 0.000000 10.000000 l 100.000000 0.000000 c 6.000000 0.000000 6.000000 -10.000000 0.000000 -10.000000 Z" fill="black" stroke="black" stroke-width="0"/><path d=" M 150.000000 45.000000 c -6.000000 0.000000 -6.000000 10.000000 0.000000 10.000000 l 100.000000 0.000000 c 6.000000 0.000000 6.000000 -10.000000 0.000000 -10.000000 Z" fill="black" stroke="black" stroke-width="0"/><path d=" M 250.000000 1645.000000 c -6.000000 0.000000 -6.000000 10.000000 0.000000 10.000000 l 100.000000 0.000000 c 6.000000 0.000000 6.000000 -10.000000 0.000000 -10.000000 Z" fill="black" stroke="black" stroke-width="0"/><path d=" M 250.000000 1445.000000 c -6.000000 0.000000 -6.000000 10.000000 0.000000 10.000000 l 100.000000 0.000000 c 6.000000 0.000000 6.000000 -10.000000 0.000000 -10.000000 Z" fill="black" stroke="black" stroke-width="0"/><path d=" M 250.000000 545.000000 c -6.000000 0.000000 -6.000000 10.000000 0.000000 10.000000 l 100.000000 0.000000 c 6.000000 0.000000 6.000000 -10.000000 0.000000 -10.000000 Z" fill="black" stroke="black" stroke-width="0"/><path d=" M 250.000000 45.000000 c -6.000000 0.000000 -6.000000 10.000000 0.000000 10.000000 l 100.000000 0.000000 c 6.000000 0.000000 6.000000 -10.000000 0.000000 -10.000000 Z" fill="black" stroke="black" stroke-width="0"/><path d=" M 350.000000 1645.000000 c -6.000000 0.000000 -6.000000 10.000000 0.000000 10.000000 l 100.000000 0.000000 c 6.000000 0.000000 6.000000 -10.000000 0.000000 -10.000000 Z" fill="black" stroke="black" stroke-width="0"/><path d=" M 350.000000 945.000000 c -6.000000 0.000000 -6.000000 10.000000 0.000000 10.000000 l 100.000000 0.000000 c 6.000000 0.000000 6.000000 -10.000000 0.000000 -10.000000 Z" fill="black" stroke="black" stroke-width="0"/><path d=" M 350.000000 45.000000 c -6.000000 0.000000 -6.000000 10.000000 0.000000 10.000000 l 100.000000 0.000000 c 6.000000 0.000000 6.000000 -10.000000 0.000000 -10.000000 Z" fill="black" stroke="black" stroke-width="0"/><path d=" M 450.000000 1645.000000 c -6.000000 0.000000 -6.000000 10.000000 0.000000 10.000000 l 100.000000 0.000000 c 6.000000 0.000000 6.000000 -10.000000 0.000000 -10.000000 Z" fill="black" stroke="black" stroke-width="0"/><path d=" M 450.000000 45.000000 c -6.000000 0.000000 -6.000000 10.000000 0.000000 10.000000 l 100.000000 0.000000 c 6.000000 0.000000 6.000000 -10.000000 0.000000 -10.000000 Z" fill="black" stroke="black" stroke-width="0"/><path d=" M 550.000000 1645.000000 c -6.000000 0.000000 -6.000000 10.000000 0.000000 10.000000 l 100.000000 0.000000 c 6.000000 0.000000 6.000000 -10.000000 0.000000 -10.000000 Z" fill="black" stroke="black" stroke-width="0"/><path d=" M 550.000000 45.000000 c -6.000000 0.000000 -6.000000 10.000000 0.000000 10.000000 l 100.000000 0.000000 c 6.000000 0.000000 6.000000 -10.000000 0.000000 -10.000000 Z" fill="black" stroke="black" stroke-width="0"/><path d=" M 650.000000 1645.000000 c -6.000000 0.000000 -6.000000 10.000000 0.000000 10.000000 l 100.000000 0.000000 c 6.000000 0.000000 6.000000 -10.000000 0.000000 -10.000000 Z" fill="black" stroke="black" stroke-width="0"/><path d=" M 650.000000 1345.000000 c -6.000000 0.000000 -6.000000 10.000000 0.000000 10.000000 l 100.000000 0.000000 c 6.000000 0.000000 6.000000 -10.000000 0.000000 -10.000000 Z" fill="black" stroke="black" stroke-width="0"/><path d=" M 650.000000 245.000000 c -6.000000 0.000000 -6.000000 10.000000 0.000000 10.000000 l 100.000000 0.000000 c 6.000000 0.000000 6.000000 -10.000000 0.000000 -10.000000 Z" fill="black" stroke="black" stroke-width="0"/><path d=" M 650.000000 45.000000 c -6.000000 0.000000 -6.000000 10.000000 0.000000 10.000000 l 100.000000 0.000000 c 6.000000 0.000000 6.000000 -10.000000 0.000000 -10.000000 Z" fill="black" stroke="black" stroke-width="0"/><path d=" M 750.000000 1645.000000 c -6.000000 0.000000 -6.000000 10.000000 0.000000 10.000000 l 100.000000 0.000000 c 6.000000 0.000000 6.000000 -10.000000 0.000000 -10.000000 Z" fill="black" stroke="black" stroke-width="0"/><path d=" M 750.000000 945.000000 c -6.000000 0.000000 -6.000000 10.000000 0.000000 10.000000 l 100.000000 0.000000 c 6.000000 0.000000 6.000000 -10.000000 0.000000 -10.000000 Z" fill="black" stroke="black" stroke-width="0"/><path d=" M 750.000000 845.000000 c -6.000000 0.000000 -6.000000 10.000000 0.000000 10.000000 l 100.000000 0.000000 c 6.000000 0.000000 6.000000 -10.000000 0.000000 -10.000000 Z" fill="black" stroke="black" stroke-width="0"/><path d=" M 750.000000 745.000000 c -6.000000 0.000000 -6.000000 10.000000 0.000000 10.000000 l 100.000000 0.000000 c 6.000000 0.000000 6.000000 -10.000000 0.000000 -10.000000 Z" fill="black" stroke="black" stroke-width="0"/><path d=" M 750.000000 545.000000 c -6.000000 0.000000 -6.000000 10.000000 0.000000 10.000000 l 100.000000 0.000000 c 6.000000 0.000000 6.000000 -10.000000 0.000000 -10.000000 Z" fill="black" stroke="black" stroke-width="0"/><path d=" M 750.000000 45.000000 c -6.000000 0.000000 -6.000000 10.000000 0.000000 10.000000 l 100.000000 0.000000 c 6.000000 0.000000 6.000000 -10.000000 0.000000 -10.000000 Z" fill="black" stroke="black" stroke-width="0"/><path d=" M 850.000000 1645.000000 c -6.000000 0.000000 -6.000000 10.000000 0.000000 10.000000 l 100.000000 0.000000 c 6.000000 0.000000 6.000000 -10.000000 0.000000 -10.000000 Z" fill="black" stroke="black" stroke-width="0"/><path d=" M 850.000000 945.000000 c -6.000000 0.000000 -6.000000 10.000000 0.000000 10.000000 l 100.000000 0.000000 c 6.000000 0.000000 6.000000 -10.000000 0.000000 -10.000000 Z" fill="black" stroke="black" stroke-width="0"/><path d=" M 850.000000 845.000000 c -6.000000 0.000000 -6.000000 10.000000 0.000000 10.000000 l 100.000000 0.000000 c 6.000000 0.000000 6.000000 -10.000000 0.000000 -10.000000 Z" fill="black" stroke="black" stroke-width="0"/><path d=" M 850.000000 745.000000 c -6.000000 0.000000 -6.000000 10.000000 0.000000 10.000000 l 100.000000 0.000000 c 6.000000 0.000000 6.000000 -10.000000 0.000000 -10.000000 Z" fill="black" stroke="black" stroke-width="0"/><path d=" M 850.000000 45.000000 c -6.000000 0.000000 -6.000000 10.000000 0.000000 10.000000 l 100.000000 0.000000 c 6.000000 0.000000 6.000000 -10.000000 0.000000 -10.000000 Z" fill="black" stroke="black" stroke-width="0"/><path d=" M 950.000000 1645.000000 c -6.000000 0.000000 -6.000000 10.000000 0.000000 10.000000 l 100.000000 0.000000 c 6.000000 0.000000 6.000000 -10.000000 0.000000 -10.000000 Z" fill="black" stroke="black" stroke-width="0"/><path d=" M 950.000000 1445.000000 c -6.000000 0.000000 -6.000000 10.000000 0.000000 10.000000 l 100.000000 0.000000 c 6.000000 0.000000 6.000000 -10.000000 0.000000 -10.000000 Z" fill="black" stroke="black" stroke-width="0"/><path d=" M 950.000000 345.000000 c -6.000000 0.000000 -6.000000 10.000000 0.000000 10.000000 l 100.000000 0.000000 c 6.000000 0.000000 6.000000 -10.000000 0.000000 -10.000000 Z" fill="black" stroke="black" stroke-width="0"/><path d=" M 950.000000 45.000000 c -6.000000 0.000000 -6.000000 10.000000 0.000000 10.000000 l 100.000000 0.000000 c 6.000000 0.000000 6.000000 -10.000000 0.000000 -10.000000 Z" fill="black" stroke="black" stroke-width="0"/><path d=" M 1050.000000 1645.000000 c -6.000000 0.000000 -6.000000 10.000000 0.000000 10.000000 l 100.000000 0.000000 c 6.000000 0.000000 6.000000 -10.000000 0.000000 -10.000000 Z" fill="black" stroke="black" stroke-width="0"/><path d=" M 1050.000000 1245.000000 c -6.000000 0.000000 -6.000000 10.000000 0.000000 10.000000 l 100.000000 0.000000 c 6.000000 0.000000 6.000000 -10.000000 0.000000 -10.000000 Z" fill="black" stroke="black" stroke-width="0"/><path d=" M 1050.000000 45.000000 c -6.000000 0.000000 -6.000000 10.000000 0.000000 10.000000 l 100.000000 0.000000 c 6.000000 0.000000 6.000000 -10.000000 0.000000 -10.000000 Z" fill="black" stroke="black" stroke-width="0"/><path d=" M 1150.000000 1645.000000 c -6.000000 0.000000 -6.000000 10.000000 0.000000 10.000000 l 100.000000 0.000000 c 6.000000 0.000000 6.000000 -10.000000 0.000000 -10.000000 Z" fill="black" stroke="black" stroke-width="0"/><path d=" M 1150.000000 645.000000 c -6.000000 0.000000 -6.000000 10.000000 0.000000 10.000000 l 100.000000 0.000000 c 6.000000 0.000000 6.000000 -10.000000 0.000000 -10.000000 Z" fill="black" stroke="black" stroke-width="0"/><path d=" M 1150.000000 45.000000 c -6.000000 0.000000 -6.000000 10.000000 0.000000 10.000000 l 100.000000 0.000000 c 6.000000 0.000000 6.000000 -10.000000 0.000000 -10.000000 Z" fill="black" stroke="black" stroke-width="0"/><path d=" M 1250.000000 1645.000000 c -6.000000 0.000000 -6.000000 10.000000 0.000000 10.000000 l 100.000000 0.000000 c 6.000000 0.000000 6.000000 -10.000000 0.000000 -10.000000 Z" fill="black" stroke="black" stroke-width="0"/><path d=" M 1250.000000 45.000000 c -6.000000 0.000000 -6.000000 10.000000 0.000000 10.000000 l 100.000000 0.000000 c 6.000000 0.000000 6.000000 -10.000000 0.000000 -10.000000 Z" fill="black" stroke="black" stroke-width="0"/><path d=" M 1350.000000 1645.000000 c -6.000000 0.000000 -6.000000 10.000000 0.000000 10.000000 l 100.000000 0.000000 c 6.000000 0.000000 6.000000 -10.000000 0.000000 -10.000000 Z" fill="black" stroke="black" stroke-width="0"/><path d=" M 1350.000000 1045.000000 c -6.000000 0.000000 -6.000000 10.000000 0.000000 10.000000 l 100.000000 0.000000 c 6.000000 0.000000 6.000000 -10.000000 0.000000 -10.000000 Z" fill="black" stroke="black" stroke-width="0"/><path d=" M 1350.000000 145.000000 c -6.000000 0.000000 -6.000000 10.000000 0.000000 10.000000 l 100.000000 0.000000 c 6.000000 0.000000 6.000000 -10.000000 0.000000 -10.000000 Z" fill="black" stroke="black" stroke-width="0"/><path d=" M 1350.000000 45.000000 c -6.000000 0.000000 -6.000000 10.000000 0.000000 10.000000 l 100.000000 0.000000 c 6.000000 0.000000 6.000000 -10.000000 0.000000 -10.000000 Z" fill="black" stroke="black" stroke-width="0"/><path d=" M 1450.000000 1645.000000 c -6.000000 0.000000 -6.000000 10.000000 0.000000 10.000000 l 100.000000 0.000000 c 6.000000 0.000000 6.000000 -10.000000 0.000000 -10.000000 Z" fill="black" stroke="black" stroke-width="0"/><path d=" M 1450.000000 1345.000000 c -6.000000 0.000000 -6.000000 10.000000 0.000000 10.000000 l 100.000000 0.000000 c 6.000000 0.000000 6.000000 -10.000000 0.000000 -10.000000 Z" fill="black" stroke="black" stroke-width="0"/><path d=" M 1450.000000 645.000000 c -6.000000 0.000000 -6.000000 10.000000 0.000000 10.000000 l 100.000000 0.000000 c 6.000000 0.000000 6.000000 -10.000000 0.000000 -10.000000 Z" fill="black" stroke="black" stroke-width="0"/><path d=" M 1450.000000 45.000000 c -6.000000 0.000000 -6.000000 10.000000 0.000000 10.000000 l 100.000000 0.000000 c 6.000000 0.000000 6.000000 -10.000000 0.000000 -10.000000 Z" fill="black" stroke="black" stroke-width="0"/><path d=" M 1550.000000 1645.000000 c -6.000000 0.000000 -6.000000 10.000000 0.000000 10.000000 l 100.000000 0.000000 c 6.000000 0.000000 6.000000 -10.000000 0.000000 -10.000000 Z" fill="black" stroke="black" stroke-width="0"/><path d=" M 1550.000000 945.000000 c -6.000000 0.000000 -6.000000 10.000000 0.000000 10.000000 l 100.000000 0.000000 c 6.000000 0.000000 6.000000 -10.000000 0.000000 -10.000000 Z" fill="black" stroke="black" stroke-width="0"/><path d=" M 1550.000000 445.000000 c -6.000000 0.000000 -6.000000 10.000000 0.000000 10.000000 l 100.000000 0.000000 c 6.000000 0.000000 6.000000 -10.000000 0.000000 -10.000000 Z" fill="black" stroke="black" stroke-width="0"/><path d=" M 1550.000000 45.000000 c -6.000000 0.000000 -6.000000 10.000000 0.000000 10.000000 l 100.000000 0.000000 c 6.000000 0.000000 6.000000 -10.000000 0.000000 -10.000000 Z" fill="black" stroke="black" stroke-width="0"/><path d=" M 45.000000 1650.000000 c 0.000000 6.000000 10.000000 6.000000 10.000000 0.000000 l 0.000000 -100.000000 c 0.000000 -6.000000 -10.000000 -6.000000 -10.000000 0.000000 Z" fill="black" stroke="black" stroke-width="0"/><path d=" M 45.000000 1550.000000 c 0.000000 6.000000 10.000000 6.000000 10.000000 0.000000 l 0.000000 -100.000000 c 0.000000 -6.000000 -10.000000 -6.000000 -10.000000 0.000000 Z" fill="black" stroke="black" stroke-width="0"/><path d=" M 45.000000 1450.000000 c 0.000000 6.000000 10.000000 6.000000 10.000000 0.000000 l 0.000000 -100.000000 c 0.000000 -6.000000 -10.000000 -6.000000 -10.000000 0.000000 Z" fill="black" stroke="black" stroke-width="0"/><path d=" M 45.000000 1350.000000 c 0.000000 6.000000 10.000000 6.000000 10.000000 0.000000 l 0.000000 -100.000000 c 0.000000 -6.000000 -10.000000 -6.000000 -10.000000 0.000000 Z" fill="black" stroke="black" stroke-width="0"/><path d=" M 45.000000 1250.000000 c 0.000000 6.000000 10.000000 6.000000 10.000000 0.000000 l 0.000000 -100.000000 c 0.000000 -6.000000 -10.000000 -6.000000 -10.000000 0.000000 Z" fill="black" stroke="black" stroke-width="0"/><path d=" M 45.000000 1150.000000 c 0.000000 6.000000 10.000000 6.000000 10.000000 0.000000 l 0.000000 -100.000000 c 0.000000 -6.000000 -10.000000 -6.000000 -10.000000 0.000000 Z" fill="black" stroke="black" stroke-width="0"/><path d=" M 45.000000 1050.000000 c 0.000000 6.000000 10.000000 6.000000 10.000000 0.000000 l 0.000000 -100.000000 c 0.000000 -6.000000 -10.000000 -6.000000 -10.000000 0.000000 Z" fill="black" stroke="black" stroke-width="0"/><path d=" M 45.000000 950.000000 c 0.000000 6.000000 10.000000 6.000000 10.000000 0.000000 l 0.000000 -100.000000 c 0.000000 -6.000000 -10.000000 -6.000000 -10.000000 0.000000 Z" fill="black" stroke="black" stroke-width="0"/><path d=" M 45.000000 850.000000 c 0.000000 6.000000 10.000000 6.000000 10.000000 0.000000 l 0.000000 -100.000000 c 0.000000 -6.000000 -10.000000 -6.000000 -10.000000 0.000000 Z" fill="black" stroke="black" stroke-width="0"/><path d=" M 45.000000 750.000000 c 0.000000 6.000000 10.000000 6.000000 10.000000 0.000000 l 0.000000 -100.000000 c 0.000000 -6.000000 -10.000000 -6.000000 -10.000000 0.000000 Z" fill="black" stroke="black" stroke-width="0"/><path d=" M 45.000000 650.000000 c 0.000000 6.000000 10.000000 6.000000 10.000000 0.000000 l 0.000000 -100.000000 c 0.000000 -6.000000 -10.000000 -6.000000 -10.000000 0.000000 Z" fill="black" stroke="black" stroke-width="0"/><path d=" M 45.000000 550.000000 c 0.000000 6.000000 10.000000 6.000000 10.000000 0.000000 l 0.000000 -100.000000 c 0.000000 -6.000000 -10.000000 -6.000000 -10.000000 0.000000 Z" fill="black" stroke="black" stroke-width="0"/><path d=" M 45.000000 450.000000 c 0.000000 6.000000 10.000000 6.000000 10.000000 0.000000 l 0.000000 -100.000000 c 0.000000 -6.000000 -10.000000 -6.000000 -10.000000 0.000000 Z" fill="black" stroke="black" stroke-width="0"/><path d=" M 45.000000 350.000000 c 0.000000 6.000000 10.000000 6.000000 10.000000 0.000000 l 0.000000 -100.000000 c 0.000000 -6.000000 -10.000000 -6.000000 -10.000000 0.000000 Z" fill="black" stroke="black" stroke-width="0"/><path d=" M 45.000000 250.000000 c 0.000000 6.000000 10.000000 6.000000 10.000000 0.000000 l 0.000000 -100.000000 c 0.000000 -6.000000 -10.000000 -6.000000 -10.000000 0.000000 Z" fill="black" stroke="black" stroke-width="0"/><path d=" M 45.000000 150.000000 c 0.000000 6.000000 10.000000 6.000000 10.000000 0.000000 l 0.000000 -100.000000 c 0.000000 -6.000000 -10.000000 -6.000000 -10.000000 0.000000 Z" fill="black" stroke="black" stroke-width="0"/><path d=" M 145.000000 1250.000000 c 0.000000 6.000000 10.000000 6.000000 10.000000 0.000000 l 0.000000 -100.000000 c 0.000000 -6.000000 -10.000000 -6.000000 -10.000000 0.000000 Z" fill="black" stroke="black" stroke-width="0"/><path d=" M 145.000000 250.000000 c 0.000000 6.000000 10.000000 6.000000 10.000000 0.000000 l 0.000000 -100.000000 c 0.000000 -6.000000 -10.000000 -6.000000 -10.000000 0.000000 Z" fill="black" stroke="black" stroke-width="0"/><path d=" M 245.000000 1550.000000 c 0.000000 6.000000 10.000000 6.000000 10.000000 0.000000 l 0.000000 -100.000000 c 0.000000 -6.000000 -10.000000 -6.000000 -10.000000 0.000000 Z" fill="black" stroke="black" stroke-width="0"/><path d=" M 345.000000 550.000000 c 0.000000 6.000000 10.000000 6.000000 10.000000 0.000000 l 0.000000 -100.000000 c 0.000000 -6.000000 -10.000000 -6.000000 -10.000000 0.000000 Z" fill="black" stroke="black" stroke-width="0"/><path d=" M 445.000000 1050.000000 c 0.000000 6.000000 10.000000 6.000000 10.000000 0.000000 l 0.000000 -100.000000 c 0.000000 -6.000000 -10.000000 -6.000000 -10.000000 0.000000 Z" fill="black" stroke="black" stroke-width="0"/><path d=" M 445.000000 150.000000 c 0.000000 6.000000 10.000000 6.000000 10.000000 0.000000 l 0.000000 -100.000000 c 0.000000 -6.000000 -10.000000 -6.000000 -10.000000 0.000000 Z" fill="black" stroke="black" stroke-width="0"/><path d=" M 645.000000 1650.000000 c 0.000000 6.000000 10.000000 6.000000 10.000000 0.000000 l 0.000000 -100.000000 c 0.000000 -6.000000 -10.000000 -6.000000 -10.000000 0.000000 Z" fill="black" stroke="black" stroke-width="0"/><path d=" M 745.000000 950.000000 c 0.000000 6.000000 10.000000 6.000000 10.000000 0.000000 l 0.000000 -100.000000 c 0.000000 -6.000000 -10.000000 -6.000000 -10.000000 0.000000 Z" fill="black" stroke="black" stroke-width="0"/><path d=" M 745.000000 850.000000 c 0.000000 6.000000 10.000000 6.000000 10.000000 0.000000 l 0.000000 -100.000000 c 0.000000 -6.000000 -10.000000 -6.000000 -10.000000 0.000000 Z" fill="black" stroke="black" stroke-width="0"/><path d=" M 745.000000 650.000000 c 0.000000 6.000000 10.000000 6.000000 10.000000 0.000000 l 0.000000 -100.000000 c 0.000000 -6.000000 -10.000000 -6.000000 -10.000000 0.000000 Z" fill="black" stroke="black" stroke-width="0"/><path d=" M 745.000000 350.000000 c 0.000000 6.000000 10.000000 6.000000 10.000000 0.000000 l 0.000000 -100.000000 c 0.000000 -6.000000 -10.000000 -6.000000 -10.000000 0.000000 Z" fill="black" stroke="black" stroke-width="0"/><path d=" M 845.000000 950.000000 c 0.000000 6.000000 10.000000 6.000000 10.000000 0.000000 l 0.000000 -100.000000 c 0.000000 -6.000000 -10.000000 -6.000000 -10.000000 0.000000 Z" fill="black" stroke="black" stroke-width="0"/><path d=" M 845.000000 850.000000 c 0.000000 6.000000 10.000000 6.000000 10.000000 0.000000 l 0.000000 -100.000000 c 0.000000 -6.000000 -10.000000 -6.000000 -10.000000 0.000000 Z" fill="black" stroke="black" stroke-width="0"/><path d=" M 945.000000 950.000000 c 0.000000 6.000000 10.000000 6.000000 10.000000 0.000000 l 0.000000 -100.000000 c 0.000000 -6.000000 -10.000000 -6.000000 -10.000000 0.000000 Z" fill="black" stroke="black" stroke-width="0"/><path d=" M 945.000000 850.000000 c 0.000000 6.000000 10.000000 6.000000 10.000000 0.000000 l 0.000000 -100.000000 c 0.000000 -6.000000 -10.000000 -6.000000 -10.000000 0.000000 Z" fill="black" stroke="black" stroke-width="0"/><path d=" M 1045.000000 1550.000000 c 0.000000 6.000000 10.000000 6.000000 10.000000 0.000000 l 0.000000 -100.000000 c 0.000000 -6.000000 -10.000000 -6.000000 -10.000000 0.000000 Z" fill="black" stroke="black" stroke-width="0"/><path d=" M 1045.000000 350.000000 c 0.000000 6.000000 10.000000 6.000000 10.000000 0.000000 l 0.000000 -100.000000 c 0.000000 -6.000000 -10.000000 -6.000000 -10.000000 0.000000 Z" fill="black" stroke="black" stroke-width="0"/><path d=" M 1145.000000 1250.000000 c 0.000000 6.000000 10.000000 6.000000 10.000000 0.000000 l 0.000000 -100.000000 c 0.000000 -6.000000 -10.000000 -6.000000 -10.000000 0.000000 Z" fill="black" stroke="black" stroke-width="0"/><path d=" M 1245.000000 1650.000000 c 0.000000 6.000000 10.000000 6.000000 10.000000 0.000000 l 0.000000 -100.000000 c 0.000000 -6.000000 -10.000000 -6.000000 -10.000000 0.000000 Z" fill="black" stroke="black" stroke-width="0"/><path d=" M 1245.000000 750.000000 c 0.000000 6.000000 10.000000 6.000000 10.000000 0.000000 l 0.000000 -100.000000 c 0.000000 -6.000000 -10.000000 -6.000000 -10.000000 0.000000 Z" fill="black" stroke="black" stroke-width="0"/><path d=" M 1245.000000 150.000000 c 0.000000 6.000000 10.000000 6.000000 10.000000 0.000000 l 0.000000 -100.000000 c 0.000000 -6.000000 -10.000000 -6.000000 -10.000000 0.000000 Z" fill="black" stroke="black" stroke-width="0"/><path d=" M 1345.000000 1150.000000 c 0.000000 6.000000 10.000000 6.000000 10.000000 0.000000 l 0.000000 -100.000000 c 0.000000 -6.000000 -10.000000 -6.000000 -10.000000 0.000000 Z" fill="black" stroke="black" stroke-width="0"/><path d=" M 1345.000000 250.000000 c 0.000000 6.000000 10.000000 6.000000 10.000000 0.000000 l 0.000000 -100.000000 c 0.000000 -6.000000 -10.000000 -6.000000 -10.000000 0.000000 Z" fill="black" stroke="black" stroke-width="0"/><path d=" M 1445.000000 1350.000000 c 0.000000 6.000000 10.000000 6.000000 10.000000 0.000000 l 0.000000 -100.000000 c 0.000000 -6.000000 -10.000000 -6.000000 -10.000000 0.000000 Z" fill="black" stroke="black" stroke-width="0"/><path d=" M 1445.000000 650.000000 c 0.000000 6.000000 10.000000 6.000000 10.000000 0.000000 l 0.000000 -100.000000 c 0.000000 -6.000000 -10.000000 -6.000000 -10.000000 0.000000 Z" fill="black" stroke="black" stroke-width="0"/><path d=" M 1645.000000 1650.000000 c 0.000000 6.000000 10.000000 6.000000 10.000000 0.000000 l 0.000000 -100.000000 c 0.000000 -6.000000 -10.000000 -6.000000 -10.000000 0.000000 Z" fill="black" stroke="black" stroke-width="0"/><path d=" M 1645.000000 1550.000000 c 0.000000 6.000000 10.000000 6.000000 10.000000 0.000000 l 0.000000 -100.000000 c 0.000000 -6.000000 -10.000000 -6.000000 -10.000000 0.000000 Z" fill="black" stroke="black" stroke-width="0"/><path d=" M 1645.000000 1450.000000 c 0.000000 6.000000 10.000000 6.000000 10.000000 0.000000 l 0.000000 -100.000000 c 0.000000 -6.000000 -10.000000 -6.000000 -10.000000 0.000000 Z" fill="black" stroke="black" stroke-width="0"/><path d=" M 1645.000000 1350.000000 c 0.000000 6.000000 10.000000 6.000000 10.000000 0.000000 l 0.000000 -100.000000 c 0.000000 -6.000000 -10.000000 -6.000000 -10.000000 0.000000 Z" fill="black" stroke="black" stroke-width="0"/><path d=" M 1645.000000 1250.000000 c 0.000000 6.000000 10.000000 6.000000 10.000000 0.000000 l 0.000000 -100.000000 c 0.000000 -6.000000 -10.000000 -6.000000 -10.000000 0.000000 Z" fill="black" stroke="black" stroke-width="0"/><path d=" M 1645.000000 1150.000000 c 0.000000 6.000000 10.000000 6.000000 10.000000 0.000000 l 0.000000 -100.000000 c 0.000000 -6.000000 -10.000000 -6.000000 -10.000000 0.000000 Z" fill="black" stroke="black" stroke-width="0"/><path d=" M 1645.000000 1050.000000 c 0.000000 6.000000 10.000000 6.000000 10.000000 0.000000 l 0.000000 -100.000000 c 0.000000 -6.000000 -10.000000 -6.000000 -10.000000 0.000000 Z" fill="black" stroke="black" stroke-width="0"/><path d=" M 1645.000000 950.000000 c 0.000000 6.000000 10.000000 6.000000 10.000000 0.000000 l 0.000000 -100.000000 c 0.000000 -6.000000 -10.000000 -6.000000 -10.000000 0.000000 Z" fill="black" stroke="black" stroke-width="0"/><path d=" M 1645.000000 850.000000 c 0.000000 6.000000 10.000000 6.000000 10.000000 0.000000 l 0.000000 -100.000000 c 0.000000 -6.000000 -10.000000 -6.000000 -10.000000 0.000000 Z" fill="black" stroke="black" stroke-width="0"/><path d=" M 1645.000000 750.000000 c 0.000000 6.000000 10.000000 6.000000 10.000000 0.000000 l 0.000000 -100.000000 c 0.000000 -6.000000 -10.000000 -6.000000 -10.000000 0.000000 Z" fill="black" stroke="black" stroke-width="0"/><path d=" M 1645.000000 650.000000 c 0.000000 6.000000 10.000000 6.000000 10.000000 0.000000 l 0.000000 -100.000000 c 0.000000 -6.000000 -10.000000 -6.000000 -10.000000 0.000000 Z" fill="black" stroke="black" stroke-width="0"/><path d=" M 1645.000000 550.000000 c 0.000000 6.000000 10.000000 6.000000 10.000000 0.000000 l 0.000000 -100.000000 c 0.000000 -6.000000 -10.000000 -6.000000 -10.000000 0.000000 Z" fill="black" stroke="black" stroke-width="0"/><path d=" M 1645.000000 450.000000 c 0.000000 6.000000 10.000000 6.000000 10.000000 0.000000 l 0.000000 -100.000000 c 0.000000 -6.000000 -10.000000 -6.000000 -10.000000 0.000000 Z" fill="black" stroke="black" stroke-width="0"/><path d=" M 1645.000000 350.000000 c 0.000000 6.000000 10.000000 6.000000 10.000000 0.000000 l 0.000000 -100.000000 c 0.000000 -6.000000 -10.000000 -6.000000 -10.000000 0.000000 Z" fill="black" stroke="black" stroke-width="0"/><path d=" M 1645.000000 250.000000 c 0.000000 6.000000 10.000000 6.000000 10.000000 0.000000 l 0.000000 -100.000000 c 0.000000 -6.000000 -10.000000 -6.000000 -10.000000 0.000000 Z" fill="black" stroke="black" stroke-width="0"/><path d=" M 1645.000000 150.000000 c 0.000000 6.000000 10.000000 6.000000 10.000000 0.000000 l 0.000000 -100.000000 c 0.000000 -6.000000 -10.000000 -6.000000 -10.000000 0.000000 Z" fill="black" stroke="black" stroke-width="0"/><path d=" M 265.000000 1335.000000 l 70.000000 0.000000 l 0.000000 -10.500000 c -35.000000 0.000000 -35.000000 0.000000 -28.000000 -21.000000 a 21.000000 14.000000 -50.000000 1 0 -14.000000 -17.500000 l -23.100000 -10.500000 l 22.400000 17.500000 Z" fill="red" stroke="black" stroke-width="1.500000"/><path d=" M 311.200000 1281.100000 a 2.800000 2.100000 -10.000000 1 0 0.200000 0.200000 Z" fill="white" stroke="black" stroke-width="1.500000"/><path d=" M 1265.000000 1335.000000 l 70.000000 0.000000 l 0.000000 -10.500000 c -35.000000 0.000000 -35.000000 0.000000 -28.000000 -21.000000 a 21.000000 14.000000 -50.000000 1 0 -14.000000 -17.500000 l -23.100000 -10.500000 l 22.400000 17.500000 Z" fill="yellow" stroke="black" stroke-width="1.500000"/><path d=" M 1311.200000 1281.100000 a 2.800000 2.100000 -10.000000 1 0 0.200000 0.200000 Z" fill="white" stroke="black" stroke-width="1.500000"/><path d=" M 1165.000000 435.000000 l 70.000000 0.000000 l 0.000000 -10.500000 c -35.000000 0.000000 -35.000000 0.000000 -28.000000 -21.000000 a 21.000000 14.000000 -50.000000 1 0 -14.000000 -17.500000 l -23.100000 -10.500000 l 22.400000 17.500000 Z" fill="green" stroke="black" stroke-width="1.500000"/><path d=" M 1211.200000 381.100000 a 2.800000 2.100000 -10.000000 1 0 0.200000 0.200000 Z" fill="white" stroke="black" stroke-width="1.500000"/><path d=" M 565.000000 335.000000 l 70.000000 0.000000 l 0.000000 -10.500000 c -35.000000 0.000000 -35.000000 0.000000 -28.000000 -21.000000 a 21.000000 14.000000 -50.000000 1 0 -14.000000 -17.500000 l -23.100000 -10.500000 l 22.400000 17.500000 Z" fill="blue" stroke="black" stroke-width="1.500000"/><path d=" M 611.200000 281.100000 a 2.800000 2.100000 -10.000000 1 0 0.200000 0.200000 Z" fill="white" stroke="black" stroke-width="1.500000"/>

<svg x="250" y="650" height="200" width="200">
<svg id="emoji"  viewBox="10.9 9.4 50.2 53.6" xmlns="http://www.w3.org/2000/svg">

  <path id="debug_frame_o" fill="#aaaaaa" stroke="#000000" stroke-width="0" d="M 0 0 h 72 v 72 h -72 z" />	

  <path id="debug_frame" fill="#ffffff" stroke="#000000" stroke-width="0" d="M 10.9 9.4 h 50.2 v 53.6 h -50.2 z" />	


  <g id="color">
  
  
    <path id="swan_body_fill" fill="#fedcba"
	d="M 23.8422  42.51 
	c 22.03  -12.5653 24.21  -.1553 27.4673  -3.3092
	.9953  -.9637 8.6841  -3.7561 8.6841  -3.7561 
	s  -2.7489 23.3  -12.5891 24.9166 
	c  -7.3779 1.2119 -22.7242  2.1761 -28.0357  0
	-9.18 -3.7611 -7.1649 -16.3457 -5.3956 -20.54 
	2.0552 -4.8718  11.4376 -8.7859  9.3355 -19.3019 
	-.1854 -.9278 -.1975 -2.0708 -1.2787 -2.53 
	-1.5226 -.6471 -4.48  3.2944 -7.426  2.1242 
	0  0  3.7917 -8.7431  6.9386 -9.7333 
	4.5181 -1.4216  7.8633  4.1879  8.3879  6.8218 
	1.1173  5.61 -4.2908  14.0131 -4.7958  18.1
	C 25.1074  35.5222  23.8422  42.51  23.8422  42.51
	Z"
	/>
	
    <path id="swan_beak" fill="#f4aa41"
	d="M 17.7632  15.7092 
	c  -.135  1.2855  1.933  2.4762  2.1626  3.2628
	.2953  1.0119 -4.1957 .4178 -4.1957 .4178 
	S 17.873  14.6637  17.7632  15.7092
	Z"/>
	
  </g>
  
  <g id="swan_border_line" fill="none" stroke="#000000" stroke-linecap="round" stroke-linejoin="round" stroke-width="2">
  
    <path id="swan_body_line"
	d="M 27.1986 41.0877 
	c 3.045 -.91 8.4833 -7.14 19.8118 -2.7989 8.2484 3.1606 12.9832 -2.8445 12.9832 -2.8445
	S 57.8916 57.793 47.4045 60.3609 
	c -7.2623 1.7782 -22.7242 2.1761 -28.0357 0 -9.18 -3.7611 -8.2246 -15.4921 -5.3956 -20.54 2.911 -5.1941 10.142 -8.5786 10.2681 -19.3019"/>
	
    <path id="swan_neck_line" 
	d="
	M 23.77 43.5077 
	c .71 -12.0817 7.0657 -20.416 6.1609 -26.3062 
	-.6954 -4.5273 -3.7741 -7.76 -8.2922 -6.3379 
	-3.1468 .99 -7.0343 9.2494 -7.0343 9.2494 
	2.9462 1.17 7.426 -2.1242 7.426 -2.1242
	"/>
	
    <path id="swan_feather_line" 
	d="M 49.6121 44.31 
	c -2.1331 3.4989 -11.9 5.3058 -16.6525 5.4247
	"/>
	
  </g>

</svg>

</svg>
</svg>