<svg id="emoji" viewBox="0 0 72 72" xmlns="http://www.w3.org/2000/svg">
    <path fill="#aaa" d="M0 0h72v72H0Z"/>

    <path fill="#fff" d="M10.9 9.4h50.2V63H10.9Z"/>

    <path fill="#fedcba" d="M23.842,42.51C45.872,29.945,48.052,42.355,
      51.31,39.199999999999996C52.305,38.236999999999995,59.994,
      35.44499999999999,59.994,35.44499999999999S57.244,58.74499999999999,
      47.403999999999996,60.36099999999999C40.026999999999994,61.57299999999999,
      24.679999999999996,62.53699999999999,19.368999999999996,
      60.36099999999999C10.188999999999997,56.60099999999999,
      12.203999999999997,44.01599999999999,13.972999999999995,
      39.82099999999999C16.027999999999995,34.94999999999999,
      25.410999999999994,31.03499999999999,23.308999999999997,
      20.51899999999999C23.122999999999998,19.59199999999999,23.110999999999997,
      18.44899999999999,22.029999999999998,17.98899999999999C20.506999999999998,
      17.34199999999999,17.549999999999997,21.283999999999992,
      14.603999999999997,20.11399999999999C14.603999999999997,
      20.11399999999999,18.395999999999997,11.36999999999999,
      21.543,10.37999999999999C26.061,8.95899999999999,29.406,14.56799999999999,
      29.930999999999997,17.20199999999999C31.048,22.81199999999999,
      25.639999999999997,31.21499999999999,25.134999999999998,
      35.30199999999999C25.107999999999997,35.52199999999999,
      23.842,42.50999999999999,23.842,42.50999999999999Z"/>

    <path fill="#f4aa41" d="M17.763,15.71C17.628,16.995,19.696,
      18.185000000000002,19.926000000000002,18.972C20.221000000000004,
      19.984,15.730000000000002,19.39,15.730000000000002,19.39S17.873,
      14.664000000000001,17.763,15.709Z"/>

    <g fill="none" stroke="#000" stroke-linecap="round"
      stroke-linejoin="round" stroke-width="2">

        <path d="M27.199,41.088C30.244,40.178000000000004,35.682,33.948,
          47.010000000000005,38.288000000000004C55.25900000000001,
          41.449000000000005,59.99400000000001,35.444,59.99400000000001,
          35.444S57.89200000000001,57.794000000000004,47.40400000000001,
          60.361000000000004C40.14200000000001,62.14,24.68000000000001,
          62.537000000000006,19.36900000000001,
          60.361000000000004C10.18900000000001,56.601000000000006,
          11.14400000000001,44.869,13.97300000000001,
          39.821000000000005C16.88400000000001,34.627,24.11500000000001,
          31.243000000000006,24.24100000000001,20.519000000000005"/>

        <path d="M23.77,43.508C24.48,31.426000000000002,
          30.836,23.092000000000002,29.93,17.201000000000004C29.236,
          12.674000000000003,26.157,9.441000000000004,
          21.639,10.864000000000004C18.492,11.854000000000005,14.604,
          20.113000000000007,14.604,20.113000000000007C17.551,
          21.28300000000001,22.03,17.989000000000008,22.03,
          17.989000000000008M49.612,44.31C47.479,47.809000000000005,
          37.712,49.616,32.96,49.735"/>

    </g>

</svg>
