<svg id="emoji" viewBox="0 0 72 72" xmlns="http://www.w3.org/2000/svg">

  <path id="debug_frame_o" fill="#aaaaaa" stroke="#000000" stroke-width="0" d="M0,0H72V72H0Z" />	

  <path id="debug_frame" fill="#ffffff" stroke="#000000" stroke-width="0" d="M10.9,9.4H61.1V63H10.899999999999999Z" />	


  <g id="color">
  
  
    <path id="swan_body_fill" fill="#fedcba"
	d="M23.8422,42.51C45.8722,29.944699999999997,48.0522,42.3547,51.3095,39.2008C52.3048,38.2371,59.9936,35.4447,59.9936,35.4447S57.2447,58.744699999999995,47.4045,60.3613C40.0266,61.5732,24.6803,62.5374,19.3688,60.3613C10.1888,56.6002,12.2039,44.0156,13.9732,39.8213C16.0284,34.9495,25.410800000000002,31.035400000000003,23.3087,20.5194C23.1233,19.5916,23.1112,18.4486,22.03,17.9894C20.5074,17.3423,17.55,21.2838,14.604000000000001,20.113599999999998C14.604000000000001,20.113599999999998,18.3957,11.370499999999998,21.5426,10.380299999999998C26.0607,8.958699999999999,29.4059,14.568199999999997,29.930500000000002,17.202099999999998C31.047800000000002,22.812099999999997,25.6397,31.215199999999996,25.134700000000002,35.302099999999996C25.1077,35.522099999999995,23.841700000000003,42.510099999999994,23.841700000000003,42.510099999999994Z" />
	
    <path id="swan_beak" fill="#f4aa41"
	d="M17.7632,15.7092C17.6282,16.994699999999998,19.6962,18.185399999999998,19.925800000000002,18.971999999999998C20.221100000000003,19.9839,15.730100000000002,19.389799999999997,15.730100000000002,19.389799999999997S17.8731,14.663799999999998,17.7631,15.708799999999997Z" />
	
  </g>
  
  <g id="swan_border_line" fill="none" stroke="#000000" stroke-linecap="round" stroke-linejoin="round" stroke-width="2">
  
    <path id="swan_body_line"
	d="M27.1986,41.0877C30.2436,40.1777,35.6819,33.9477,47.010400000000004,38.288799999999995C55.25880000000001,41.4494,59.9936,35.4443,59.9936,35.4443S57.891600000000004,57.7933,47.4046,60.3613C40.142300000000006,62.1395,24.680400000000002,62.5374,19.368900000000004,60.3613C10.188900000000004,56.6002,11.144300000000003,44.8692,13.973300000000004,39.8213C16.884300000000003,34.6272,24.115300000000005,31.2427,24.241400000000006,20.5194" />
	
    <path id="swan_neck_line" 
	d="M23.77,43.5077C24.48,31.426000000000002,30.8357,23.0917,29.9309,17.2015C29.235500000000002,12.674199999999999,26.1568,9.4415,21.6387,10.863599999999998C18.4919,11.853599999999998,14.6044,20.113,14.6044,20.113C17.5506,21.283,22.0304,17.988799999999998,22.0304,17.988799999999998" />
	
    <path id="swan_feather_line" 
	d="M49.6121,44.31C47.479,47.8089,37.7121,49.6158,32.959599999999995,49.734700000000004" />
	
  </g>

</svg>
