<svg id="emoji" viewBox="0 0 72 72" xmlns="http://www.w3.org/2000/svg">

  <path id="debug_frame_o" fill="#aaaaaa" stroke="#000000" stroke-width="0" d="M 0 0 h 72 v 72 h -72 z" />

  <path id="debug_frame" fill="#ffffff" stroke="#000000" stroke-width="0" d="M 10.9 9.4 h 50.2 v 53.6 h -50.2 z" />


  <g id="color">


    <path id="swan_body_fill" fill="#fedcba"
    d="M 23.8422 42.51
       C 45.8722 29.944699999999997 48.0522 42.3547 51.3095 39.2008
       C 52.3048 38.2371 59.9936 35.4447 59.9936 35.4447
       S 57.2447 58.744699999999995 47.4045 60.3613
       C 40.0266 61.5732 24.6803 62.5374 19.3688 60.3613
       C 10.1888 56.6002 12.2039 44.0156 13.9732 39.8213
       C 16.0284 34.9495 25.410800000000002 31.035400000000003 23.3087 20.5194
       C 23.1233 19.5916 23.1112 18.4486 22.03 17.9894
       C 20.5074 17.3423 17.55 21.2838 14.604000000000001 20.113599999999998
       C 14.604000000000001 20.113599999999998 18.3957 11.370499999999998 21.5426 10.380299999999998
       C 26.0607 8.958699999999999 29.4059 14.568199999999997 29.930500000000002 17.202099999999998
       C 31.047800000000002 22.812099999999997 25.6397 31.215199999999996 25.134700000000002 35.302099999999996
       C 25.1074 35.5222 23.8422 42.51 23.8422 42.51
       Z"
    />

    <path id="swan_beak" fill="#f4aa41"
    d="M 17.7632 15.7092
    C 17.6282 16.994699999999998 19.6962 18.185399999999998 19.925800000000002 18.971999999999998
    C 20.221100000000003 19.9839 15.730100000000002 19.389799999999997 15.730100000000002 19.389799999999997
    S 17.873 14.6637 17.7632 15.7092
    Z "/>

  </g>

  <g id="swan_border_line" fill="none" stroke="#000000" stroke-linecap="round" stroke-linejoin="round" stroke-width="0.1">

    <path id="swan_body_line"
    d="M 27.1986 41.0877
       C 30.2436 40.1777 35.6819 33.9477 47.010400000000004 38.288799999999995
       C 55.25880000000001 41.4494 59.9936 35.4443 59.9936 35.4443
       S 57.8916 57.793 47.4045 60.3609
       C 40.1422 62.1391 24.6803 62.537 19.3688 60.3609
       C 10.1888 56.5998 11.1442 44.8688 13.9732 39.8209
       C 16.8842 34.6268 24.1152 31.2423 24.241300000000003 20.519000000000002
    "/>

    <path id="swan_neck_line"
    d="
    M 23.77 43.5077
    C 24.48 31.426000000000002 30.8357 23.0917 29.9309 17.2015
    C 29.235500000000002 12.674199999999999 26.1568 9.4415 21.6387 10.863599999999998
    C 18.4919 11.853599999999998 14.6044 20.113 14.6044 20.113
    C 17.5506 21.283 22.0304 17.988799999999998 22.0304 17.988799999999998
    "/>

    <path id="swan_feather_line"
    d="M 49.6121 44.31
    C 47.479 47.8089 37.7121 49.6158 32.959599999999995 49.734700000000004
    "/>

  </g>

</svg>
