<svg id="emoji" viewBox="0 0 72 72" xmlns="http://www.w3.org/2000/svg">

  <path id="debug_frame_o" fill="#aaaaaa" stroke="#000000" stroke-width="0" d="M0,0h72v72h-72z" />	

  <path id="debug_frame" fill="#ffffff" stroke="#000000" stroke-width="0" d="M10.9,9.4h50.2v53.6h-50.2z" />	


  <g id="color">
  
  
    <path id="swan_body_fill" fill="#fedcba"
	d="M23.8422,42.51c22.03,-12.5653,24.21,-0.1553,27.4673,-3.3092c0.9953,-0.9637,8.6841,-3.7561,8.6841,-3.7561s-2.7489,23.3,-12.5891,24.9166c-7.3779,1.2119,-22.7242,2.1761,-28.0357,0c-9.18,-3.7611,-7.1649,-16.3457,-5.3956,-20.54c2.0552,-4.8718,11.4376,-8.7859,9.3355,-19.3019c-0.1854,-0.9278,-0.1975,-2.0708,-1.2787,-2.53c-1.5226,-0.6471,-4.48,3.2944,-7.426,2.1242c0,0,3.7917,-8.7431,6.9386,-9.7333c4.5181,-1.4216,7.8633,4.1879,8.3879,6.8218c1.1173,5.61,-4.2908,14.0131,-4.7958,18.1c-0.027,0.22,-1.293,7.208,-1.293,7.208z" />
	
    <path id="swan_beak" fill="#f4aa41"
	d="M17.7632,15.7092c-0.135,1.2855,1.933,2.4762,2.1626,3.2628c0.2953,1.0119,-4.1957,0.4178,-4.1957,0.4178s2.143,-4.726,2.033,-3.681z" />
	
  </g>
  
  <g id="swan_border_line" fill="none" stroke="#000000" stroke-linecap="round" stroke-linejoin="round" stroke-width="2">
  
    <path id="swan_body_line"
	d="M27.1986,41.0877c3.045,-0.91,8.4833,-7.14,19.8118,-2.7989c8.2484,3.1606,12.9832,-2.8445,12.9832,-2.8445s-2.102,22.349,-12.589,24.917c-7.2623,1.7782,-22.7242,2.1761,-28.0357,0c-9.18,-3.7611,-8.2246,-15.4921,-5.3956,-20.54c2.911,-5.1941,10.142,-8.5786,10.2681,-19.3019" />
	
    <path id="swan_neck_line" 
	d="M23.77,43.5077c0.71,-12.0817,7.0657,-20.416,6.1609,-26.3062c-0.6954,-4.5273,-3.7741,-7.76,-8.2922,-6.3379c-3.1468,0.99,-7.0343,9.2494,-7.0343,9.2494c2.9462,1.17,7.426,-2.1242,7.426,-2.1242" />
	
    <path id="swan_feather_line" 
	d="M49.6121,44.31c-2.1331,3.4989,-11.9,5.3058,-16.6525,5.4247" />
	
  </g>

</svg>
